<?xml version="1.0" standalone="no"?>
<!DOCTYPE svg PUBLIC "-//W3C//DTD SVG 20010904//EN"
 "http://www.w3.org/TR/2001/REC-SVG-20010904/DTD/svg10.dtd">
<svg version="1.0" xmlns="http://www.w3.org/2000/svg"
 width="400.000000pt" height="400.000000pt" viewBox="0 0 400.000000 400.000000"
 preserveAspectRatio="xMidYMid meet">
<metadata>
Created by potrace 1.11, written by Peter Selinger 2001-2013
</metadata>
<g transform="translate(0.000000,400.000000) scale(0.100000,-0.100000)"
fill="#000000" stroke="none">
<path d="M1739 3996 c-2 -2 -24 -6 -49 -10 -227 -29 -502 -128 -720 -258 -456
-273 -791 -722 -919 -1233 -11 -44 -22 -96 -25 -115 -3 -19 -9 -46 -12 -60
-14 -52 -14 -542 0 -625 84 -493 325 -920 691 -1222 117 -97 109 -90 195 -147
249 -164 555 -274 870 -313 73 -9 346 -10 440 -1 453 43 927 279 1245 621 74
79 202 242 228 289 7 13 23 39 35 58 56 87 178 365 197 447 2 10 11 43 20 73
44 160 59 289 59 505 0 153 -4 211 -20 325 -13 91 -70 296 -111 400 -107 275
-252 493 -467 705 -253 249 -559 424 -896 510 -177 46 -248 53 -506 54 -138 0
-253 -1 -255 -3z"/>
</g>
</svg>
